<svg id="cls-1" xmlns="http://www.w3.org/2000/svg" viewBox="0 0 583.7 248"><defs><style>.cls-1{fill:#fff}@media (min-width:200px){.cls-1{fill:#7f1919}}</style></defs><path class="cls-1" d="M61.6 20.9a8.6 8.6 0 0 1-2.1 2.4c-.7.5-1.7.8-2.8.8-1 0-2.1-.3-3.3-1l-4-2.2a41 41 0 0 0-5.1-2.2c-1.9-.6-4.1-1-6.6-1-4.2 0-7.4.9-9.5 2.7a9.2 9.2 0 0 0-3.1 7.3c0 2 .6 3.6 1.9 4.9 1.3 1.3 2.9 2.4 4.9 3.4 2 .9 4.4 1.8 7 2.6l8 2.6a80 80 0 0 1 8 3.4c2.6 1.3 4.9 3 7 5a23.4 23.4 0 0 1 6.8 17.7c0 4.5-.8 8.7-2.3 12.7a29.9 29.9 0 0 1-17.8 17.2 40.8 40.8 0 0 1-14.9 2.5 50.4 50.4 0 0 1-26.8-7.6c-2.7-1.5-5-3.2-6.9-5.1l6.7-10.6c.5-.8 1.2-1.5 2.1-1.9a6 6 0 0 1 2.9-.7c1.3 0 2.7.4 4.1 1.3l4.6 2.8c1.7 1 3.7 2 5.9 2.8 2.2.8 4.9 1.3 7.9 1.3 4.1 0 7.3-.9 9.6-2.7s3.4-4.7 3.4-8.6c0-2.3-.6-4.1-1.9-5.6a16.8 16.8 0 0 0-4.9-3.6c-2-.9-4.3-1.8-6.9-2.5l-8-2.4c-2.7-.9-5.4-1.9-8-3.2A23.6 23.6 0 0 1 5.7 40.6 30.6 30.6 0 0 1 6 18.3 27 27 0 0 1 12.5 9c2.9-2.7 6.4-4.9 10.5-6.5C27.2.8 31.9 0 37.3 0a51.4 51.4 0 0 1 16.9 2.8 41.9 41.9 0 0 1 13 7.6l-5.6 10.5zm83.8 52.6a4.4 4.4 0 0 1 3.1 1.3l9 9.5c-3.9 5.1-8.9 9-14.8 11.6a51.8 51.8 0 0 1-21 3.9 50 50 0 0 1-19.9-3.8c-5.9-2.5-10.9-6-15-10.5a45.5 45.5 0 0 1-9.4-15.8 58.1 58.1 0 0 1 .5-40 46.5 46.5 0 0 1 26.6-26.1 55.6 55.6 0 0 1 48 4.1c2.4 1.6 4.5 3.3 6.3 5.3l-7.6 10.3-1.7 1.7c-.7.5-1.6.8-2.8.8a6 6 0 0 1-2.3-.5l-2.3-1.3-2.6-1.7a21.5 21.5 0 0 0-8-3c-1.8-.4-3.8-.5-6.2-.5A26 26 0 0 0 99.5 37c-1.4 3.8-2 8.2-2 12.9 0 5 .7 9.5 2 13.3 1.4 3.9 3.2 7.2 5.6 9.8a24.4 24.4 0 0 0 18.3 8.2 47.3 47.3 0 0 0 10.3-1.3 22.6 22.6 0 0 0 8.2-4.8 10 10 0 0 1 1.7-1.1c.5-.4 1.2-.5 1.8-.5zm118.9-23.6a51.2 51.2 0 0 1-14 35.6c-4.4 4.5-9.8 8-16 10.6s-13.2 3.8-20.8 3.8c-7.6 0-14.5-1.3-20.8-3.8a47 47 0 0 1-26.4-26.5 53.1 53.1 0 0 1 10.3-55.2c4.4-4.5 9.8-8 16.1-10.5A54.8 54.8 0 0 1 213.6 0c7.6 0 14.5 1.3 20.8 3.9a48.1 48.1 0 0 1 26.3 26.4c2.4 6 3.6 12.6 3.6 19.6zm-23.2 0c0-4.8-.6-9.2-1.9-13a29 29 0 0 0-5.4-9.8 23.5 23.5 0 0 0-8.6-6.2 30.4 30.4 0 0 0-11.6-2.1c-4.4 0-8.3.7-11.7 2.1a22.4 22.4 0 0 0-8.6 6.2c-2.3 2.7-4.1 6-5.4 9.8a40.8 40.8 0 0 0-1.9 13c0 4.9.6 9.2 1.9 13.1a29 29 0 0 0 5.4 9.8c2.3 2.7 5.2 4.7 8.6 6.1 3.4 1.4 7.3 2.1 11.7 2.1 4.3 0 8.2-.7 11.6-2.1 3.4-1.4 6.3-3.5 8.6-6.1 2.3-2.7 4.1-6 5.4-9.8a41 41 0 0 0 1.9-13.1zm48.5-48.7l1.8.5c.5.2 1 .6 1.5 1l1.7 1.8L341 63.2l-.4-5.5-.1-5V1.1h20v97.7h-11.8c-1.7 0-3.2-.3-4.4-.8a8.7 8.7 0 0 1-3.5-3l-46.1-58.2.3 5 .1 4.6v52.4h-20V1.1H287l2.6.1zm101.4 0l1.8.5c.5.2 1 .6 1.5 1l1.7 1.8 46.4 58.7-.4-5.5-.1-5V1.1h20v97.7H450c-1.7 0-3.2-.3-4.4-.8a8.7 8.7 0 0 1-3.5-3L396 36.8l.3 5 .1 4.6v52.4h-20V1.1h11.9l2.7.1zm111.7 97.6h-22.8V1.1h22.8v97.7zm81-97.7v17.4h-40.1v22.8h30.7v16.8h-30.7v23.3h40.1v17.4h-62.9V1.1h62.9zM290.5 193.9a10 10 0 0 0-4-2c-1.7-.5-3.8-.7-6.3-.7h-14v21.5h14.1c2.6 0 4.8-.3 6.5-1a9.5 9.5 0 0 0 5.9-6.2c.4-1.3.5-2.7.5-4.1 0-1.6-.2-3-.6-4.3-.3-1.3-1-2.4-2.1-3.2zm-7.8-16.6c1.8-.3 3.3-.9 4.5-1.7a7.5 7.5 0 0 0 2.8-3.3c.7-1.4 1-3.1 1-5.2s-.3-3.8-.8-5.1a6.8 6.8 0 0 0-2.4-3.3 11 11 0 0 0-4.1-1.8 25 25 0 0 0-5.8-.5h-11.7v21.3h10.4c2.3.1 4.3-.1 6.1-.4zm147.7-17.7c-2.5-2.1-6.3-3.2-11.5-3.2h-8.1V182h8.1c2.7 0 5-.3 7-1a11.7 11.7 0 0 0 7.4-7.2c.6-1.6.8-3.4.8-5.3 0-3.8-1.2-6.7-3.7-8.9z"/><path class="cls-1" d="M0 121.2V248h583.7V121.2H0zm88.8 36.1H64.5v70.4h-20v-70.4H20.2v-15.9h68.6v15.9zm30.2 70.5H98.9v-86.3H119v86.3zm113.1 0h-17.7v-49.6c0-2.4.1-5 .4-7.8l-22.9 44.4a7.3 7.3 0 0 1-2.9 3.1 8.1 8.1 0 0 1-4.1 1.1h-2.7c-1.5 0-2.9-.4-4.1-1.1a7.9 7.9 0 0 1-2.9-3.1l-23-44.4.4 4.1.1 3.8v49.6H135v-86.2h17.6a4.3 4.3 0 0 1 3.1 1.2l1.2 1.7 22.2 43.8 2.3 4.7 2.1 5 2.1-5.1 2.3-4.8 22.2-43.6c.4-.8.8-1.3 1.2-1.7a4.2 4.2 0 0 1 3.1-1.2H232v86.1zM311 212a23.8 23.8 0 0 1-6.2 8.3 29.2 29.2 0 0 1-10.2 5.5c-4 1.3-8.6 2-13.8 2h-34.5v-86.3H278c6 0 11 .6 15.2 1.7 4.2 1.1 7.6 2.7 10.2 4.7 2.6 2 4.6 4.5 5.8 7.3a25 25 0 0 1 1 15.3 17.6 17.6 0 0 1-7.2 9.4 27.9 27.9 0 0 1-6.7 3.3c5.7 1.4 9.9 3.6 12.6 6.7 2.7 3.1 4.1 7.1 4.1 11.9.1 3.6-.6 7-2 10.2zm68.5-55.1h-35.4V177h27.1v14.8h-27.1v20.6h35.4v15.4H324v-86.3h55.6v15.4zm63.9 70.9c-3.4 0-5.8-1.3-7.2-3.8l-14.3-25.1a6.5 6.5 0 0 0-2.2-2.4c-.9-.5-2-.7-3.6-.7H411v31.9h-20v-86.3h28c6.2 0 11.6.6 16 1.9 4.4 1.3 8 3.1 10.8 5.4 2.8 2.3 4.8 5 6.1 8.1a29 29 0 0 1 .8 18.1c-.8 2.5-1.9 4.8-3.3 6.9a29 29 0 0 1-5.4 5.7c-2.2 1.7-4.6 3-7.4 4.1 1.3.7 2.6 1.5 3.8 2.5 1.2 1 2.2 2.2 3 3.6l18.4 30h-18.4zm53.1 0h-7.7v-33h7.7v33zm34.9 0h-4c-.6 0-1.1-.1-1.5-.3-.4-.2-.8-.5-1.2-1l-15.5-19.6.1 1.7v19.3h-6.7v-33h4.8l.6.2.5.4.6.6 15.7 19.8-.1-1.8V195h6.7v32.8zm12.1-12c.5 1.3 1.1 2.4 1.9 3.3.8.9 1.7 1.6 2.8 2a8 8 0 0 0 3.4.7l1.9-.1 1.6-.4 1.4-.6 1.3-1 .6-.4.7-.1.5.1.5.4 3 3.2c-1.3 1.7-3 3-5 3.9-2 .9-4.4 1.3-7.1 1.3a16 16 0 0 1-11.7-4.8 16.7 16.7 0 0 1-4.3-12 16.8 16.8 0 0 1 4.8-12.1c1.5-1.5 3.3-2.7 5.4-3.5a19.4 19.4 0 0 1 13.6 0 13 13 0 0 1 4.7 3.2l-2.6 3.5-.6.6c-.2.2-.5.3-.9.3l-.8-.2-.8-.4-.9-.6-1.2-.6-1.6-.4-2.1-.2c-1.4 0-2.7.2-3.8.7-1.1.5-2.1 1.2-3 2.1a9 9 0 0 0-1.9 3.3c-.5 1.3-.7 2.8-.7 4.4.2 1.6.4 3.1.9 4.4z"/></svg>