<svg xmlns="http://www.w3.org/2000/svg" viewBox="0 0 26 63.2"><path d="M23 63c-.9 0-1.7-.4-2.3-1.2L.7 33.3a3 3 0 0 1-.5-1.6v-.1c0-.6.2-1.1.5-1.6l20-28.5A3 3 0 0 1 23 .3a3 3 0 0 1 1.6.5c1.2.9 1.5 2.6.7 3.8l-18.9 27 18.9 27c.9 1.2.6 3-.7 3.8-.5.4-1.1.6-1.6.6z" fill="#fff"/><path d="M23 .5c.5 0 1 .1 1.4.5 1.1.8 1.4 2.4.6 3.5L6 31.6l19 27.2c.8 1.1.5 2.7-.6 3.5-.4.3-.9.5-1.4.5-.8 0-1.6-.4-2.1-1.1L1 33.1c-.3-.4-.5-.9-.5-1.4v-.1c0-.5.2-1 .5-1.4L21 1.7c.4-.8 1.2-1.2 2-1.2m0-.5c-1 0-1.9.5-2.5 1.3L.5 29.8c-.3.5-.5 1.1-.5 1.7v.1c0 .6.2 1.2.5 1.7l20 28.5c.6.8 1.5 1.3 2.5 1.3.6 0 1.2-.2 1.7-.5a3 3 0 0 0 .7-4.2L6.6 31.6 25.4 4.7c.9-1.4.6-3.2-.7-4.2C24.2.2 23.6 0 23 0z" fill="#aaa"/></svg>